<svg id="visual" viewBox="0 0 960 540" xmlns="http://www.w3.org/2000/svg" xmlns:xlink="http://www.w3.org/1999/xlink" version="1.1">
	<path d="M0 248L14.5 259C29 270 58 292 87.2 292.5C116.3 293 145.7 272 174.8 264.5C204 257 233 263 262 261.5C291 260 320 251 349 261.7C378 272.3 407 302.7 436.2 308.5C465.3 314.3 494.7 295.7 523.8 279C553 262.3 582 247.7 611 243.8C640 240 669 247 698 253.2C727 259.3 756 264.7 785.2 277C814.3 289.3 843.7 308.7 872.8 300.5C902 292.3 931 256.7 945.5 238.8L960 221L960 541L945.5 541C931 541 902 541 872.8 541C843.7 541 814.3 541 785.2 541C756 541 727 541 698 541C669 541 640 541 611 541C582 541 553 541 523.8 541C494.7 541 465.3 541 436.2 541C407 541 378 541 349 541C320 541 291 541 262 541C233 541 204 541 174.8 541C145.7 541 116.3 541 87.2 541C58 541 29 541 14.5 541L0 541Z" fill="#f2f2f2"></path>
	<path d="M0 303L14.5 308C29 313 58 323 87.2 332.3C116.3 341.7 145.7 350.3 174.8 344.7C204 339 233 319 262 312C291 305 320 311 349 306.2C378 301.3 407 285.7 436.2 292C465.3 298.3 494.7 326.7 523.8 334.3C553 342 582 329 611 320.3C640 311.7 669 307.3 698 321.3C727 335.3 756 367.7 785.2 372.5C814.3 377.3 843.7 354.7 872.8 341.7C902 328.7 931 325.3 945.5 323.7L960 322L960 541L945.5 541C931 541 902 541 872.8 541C843.7 541 814.3 541 785.2 541C756 541 727 541 698 541C669 541 640 541 611 541C582 541 553 541 523.8 541C494.7 541 465.3 541 436.2 541C407 541 378 541 349 541C320 541 291 541 262 541C233 541 204 541 174.8 541C145.7 541 116.3 541 87.2 541C58 541 29 541 14.5 541L0 541Z" fill="#bbbbbb"></path>
	<path d="M0 336L14.5 338.8C29 341.7 58 347.3 87.2 361C116.3 374.7 145.7 396.3 174.8 395.2C204 394 233 370 262 373.2C291 376.3 320 406.7 349 418.2C378 429.7 407 422.3 436.2 405.8C465.3 389.3 494.7 363.7 523.8 353.8C553 344 582 350 611 353.2C640 356.3 669 356.7 698 363.8C727 371 756 385 785.2 383.8C814.3 382.7 843.7 366.3 872.8 367.2C902 368 931 386 945.5 395L960 404L960 541L945.5 541C931 541 902 541 872.8 541C843.7 541 814.3 541 785.2 541C756 541 727 541 698 541C669 541 640 541 611 541C582 541 553 541 523.8 541C494.7 541 465.3 541 436.2 541C407 541 378 541 349 541C320 541 291 541 262 541C233 541 204 541 174.8 541C145.7 541 116.3 541 87.2 541C58 541 29 541 14.5 541L0 541Z" fill="#868687"></path>
	<path d="M0 386L14.5 399.3C29 412.7 58 439.3 87.2 453.3C116.3 467.3 145.7 468.7 174.8 470C204 471.3 233 472.7 262 462.7C291 452.7 320 431.3 349 430.3C378 429.3 407 448.7 436.2 452.7C465.3 456.7 494.7 445.3 523.8 434C553 422.7 582 411.3 611 412.8C640 414.3 669 428.7 698 436C727 443.3 756 443.7 785.2 441.3C814.3 439 843.7 434 872.8 437.2C902 440.3 931 451.7 945.5 457.3L960 463L960 541L945.5 541C931 541 902 541 872.8 541C843.7 541 814.3 541 785.2 541C756 541 727 541 698 541C669 541 640 541 611 541C582 541 553 541 523.8 541C494.7 541 465.3 541 436.2 541C407 541 378 541 349 541C320 541 291 541 262 541C233 541 204 541 174.8 541C145.7 541 116.3 541 87.2 541C58 541 29 541 14.5 541L0 541Z" fill="#555556"></path>
	<path d="M0 465L14.5 471.8C29 478.7 58 492.3 87.2 490.5C116.3 488.7 145.7 471.3 174.8 462.2C204 453 233 452 262 455.2C291 458.3 320 465.7 349 464.7C378 463.7 407 454.3 436.2 450C465.3 445.7 494.7 446.3 523.8 451.7C553 457 582 467 611 470.2C640 473.3 669 469.7 698 466.8C727 464 756 462 785.2 463.2C814.3 464.3 843.7 468.7 872.8 469.3C902 470 931 467 945.5 465.5L960 464L960 541L945.5 541C931 541 902 541 872.8 541C843.7 541 814.3 541 785.2 541C756 541 727 541 698 541C669 541 640 541 611 541C582 541 553 541 523.8 541C494.7 541 465.3 541 436.2 541C407 541 378 541 349 541C320 541 291 541 262 541C233 541 204 541 174.8 541C145.7 541 116.3 541 87.2 541C58 541 29 541 14.5 541L0 541Z" fill="#29282a"></path>
</svg>