<svg width="61" height="36" viewBox="0 0 61 36" xmlns="http://www.w3.org/2000/svg">
<path d="M19.064 35.576C15.64 35.576 12.536 34.84 9.752 33.368C7 31.864 4.824 29.8 3.224 27.176C1.656 24.52 0.872 21.528 0.872 18.2C0.872 14.872 1.656 11.896 3.224 9.272C4.824 6.616 7 4.552 9.752 3.08C12.536 1.576 15.656 0.823999 19.112 0.823999C22.024 0.823999 24.648 1.336 26.984 2.36C29.352 3.384 31.336 4.856 32.936 6.776L27.944 11.384C25.672 8.76 22.856 7.448 19.496 7.448C17.416 7.448 15.56 7.912 13.928 8.84C12.296 9.736 11.016 11 10.088 12.632C9.192 14.264 8.744 16.12 8.744 18.2C8.744 20.28 9.192 22.136 10.088 23.768C11.016 25.4 12.296 26.68 13.928 27.608C15.56 28.504 17.416 28.952 19.496 28.952C22.856 28.952 25.672 27.624 27.944 24.968L32.936 29.576C31.336 31.528 29.352 33.016 26.984 34.04C24.616 35.064 21.976 35.576 19.064 35.576ZM43.0831 7.64V16.52H58.6351V22.76H43.0831V35H35.3071V1.4H60.6991V7.64H43.0831Z"/>
</svg>
