<svg id="visual" viewBox="0 0 900 600" width="900" height="600" xmlns="http://www.w3.org/2000/svg" xmlns:xlink="http://www.w3.org/1999/xlink" version="1.1"><rect x="0" y="0" width="900" height="600" fill="#fff"></rect><path d="M0 438L15 438.5C30 439 60 440 90 427C120 414 150 387 180 397.3C210 407.7 240 455.3 270 455C300 454.7 330 406.3 360 377.5C390 348.7 420 339.3 450 350.3C480 361.3 510 392.7 540 410C570 427.3 600 430.7 630 417.2C660 403.7 690 373.3 720 381.2C750 389 780 435 810 447.5C840 460 870 439 885 428.5L900 418L900 601L885 601C870 601 840 601 810 601C780 601 750 601 720 601C690 601 660 601 630 601C600 601 570 601 540 601C510 601 480 601 450 601C420 601 390 601 360 601C330 601 300 601 270 601C240 601 210 601 180 601C150 601 120 601 90 601C60 601 30 601 15 601L0 601Z" fill="#000" stroke-linecap="round" stroke-linejoin="miter"></path></svg>